<svg xmlns="http://www.w3.org/2000/svg" viewBox="0 0 128 128" shape-rendering="crispEdges">
  <!-- Hyperspace tunnel -->
  <rect width="128" height="128" fill="#0f172a"/>
  <rect x="8" y="8" width="112" height="112" fill="#020617"/>

  <!-- Warp streaks -->
  <rect x="8" y="8" width="112" height="8" fill="#c4b5fd"/>
  <rect x="8" y="24" width="112" height="8" fill="#a78bfa"/>
  <rect x="8" y="40" width="112" height="8" fill="#c4b5fd"/>
  <rect x="8" y="56" width="112" height="8" fill="#a78bfa"/>
  <rect x="8" y="72" width="112" height="8" fill="#c4b5fd"/>
  <rect x="8" y="88" width="112" height="8" fill="#a78bfa"/>
  <rect x="8" y="104" width="112" height="8" fill="#c4b5fd"/>

  <!-- Double warp arrows -->
  <polygon points="48,16 36,36 44,36 44,72 52,72 52,36 60,36" fill="#ffffff"/>
  <polygon points="80,56 68,76 76,76 76,112 84,112 84,76 92,76" fill="#ffffff"/>

  <!-- Warp coils -->
  <rect x="0" y="0" width="8" height="128" fill="#7c3aed"/>
  <rect x="120" y="0" width="8" height="128" fill="#7c3aed"/>
  <rect x="0" y="16" width="8" height="8" fill="#ffffff"/>
  <rect x="0" y="56" width="8" height="8" fill="#ffffff"/>
  <rect x="0" y="96" width="8" height="8" fill="#ffffff"/>
  <rect x="120" y="36" width="8" height="8" fill="#ffffff"/>
  <rect x="120" y="76" width="8" height="8" fill="#ffffff"/>
</svg>
