<svg xmlns="http://www.w3.org/2000/svg" viewBox="0 0 128 128" shape-rendering="crispEdges">
  <!-- Fast river -->
  <rect width="128" height="128" fill="#0e7490"/>
  <rect x="8" y="8" width="112" height="112" fill="#0891b2"/>

  <!-- Rapids -->
  <rect x="8" y="8" width="112" height="8" fill="#22d3ee"/>
  <rect x="8" y="24" width="112" height="8" fill="#67e8f9"/>
  <rect x="8" y="40" width="112" height="8" fill="#22d3ee"/>
  <rect x="8" y="56" width="112" height="8" fill="#67e8f9"/>
  <rect x="8" y="72" width="112" height="8" fill="#22d3ee"/>
  <rect x="8" y="88" width="112" height="8" fill="#67e8f9"/>
  <rect x="8" y="104" width="112" height="8" fill="#22d3ee"/>

  <!-- Double arrows (leaf) -->
  <polygon points="48,16 36,36 44,36 44,72 52,72 52,36 60,36" fill="#22c55e"/>
  <polygon points="80,56 68,76 76,76 76,112 84,112 84,76 92,76" fill="#22c55e"/>

  <!-- Muddy banks -->
  <rect x="0" y="0" width="8" height="128" fill="#78350f"/>
  <rect x="120" y="0" width="8" height="128" fill="#78350f"/>
</svg>
