<svg xmlns="http://www.w3.org/2000/svg" viewBox="0 0 64 64" shape-rendering="crispEdges">
  <!-- Fast river -->
  <rect width="64" height="64" fill="#0e7490"/>
  <rect x="4" y="4" width="56" height="56" fill="#0891b2"/>

  <!-- Rapids -->
  <rect x="4" y="4" width="56" height="4" fill="#22d3ee"/>
  <rect x="4" y="12" width="56" height="4" fill="#67e8f9"/>
  <rect x="4" y="20" width="56" height="4" fill="#22d3ee"/>
  <rect x="4" y="28" width="56" height="4" fill="#67e8f9"/>
  <rect x="4" y="36" width="56" height="4" fill="#22d3ee"/>
  <rect x="4" y="44" width="56" height="4" fill="#67e8f9"/>
  <rect x="4" y="52" width="56" height="4" fill="#22d3ee"/>

  <!-- Double arrows (leaf) -->
  <polygon points="24,8 18,18 22,18 22,36 26,36 26,18 30,18" fill="#22c55e"/>
  <polygon points="40,28 34,38 38,38 38,56 42,56 42,38 46,38" fill="#22c55e"/>

  <!-- Muddy banks -->
  <rect x="0" y="0" width="4" height="64" fill="#78350f"/>
  <rect x="60" y="0" width="4" height="64" fill="#78350f"/>
</svg>
