<svg xmlns="http://www.w3.org/2000/svg" viewBox="0 0 128 128" shape-rendering="crispEdges">
  <!-- Stone temple base -->
  <rect width="128" height="128" fill="#a8a29e"/>
  <rect x="4" y="4" width="120" height="120" fill="#d6d3d1"/>

  <!-- Ancient stone gear -->
  <circle cx="64" cy="64" r="50" fill="#78716c"/>
  <circle cx="64" cy="64" r="44" fill="#a8a29e"/>

  <!-- Stone teeth -->
  <polygon points="64,2 54,18 74,18" fill="#57534e"/>
  <polygon points="90,10 78,24 96,28" fill="#57534e"/>
  <polygon points="110,30 96,28 104,46" fill="#57534e"/>
  <polygon points="126,64 110,54 110,74" fill="#57534e"/>
  <polygon points="110,98 104,82 96,100" fill="#57534e"/>
  <polygon points="90,118 96,100 78,104" fill="#57534e"/>
  <polygon points="64,126 74,110 54,110" fill="#57534e"/>
  <polygon points="38,118 50,104 32,100" fill="#57534e"/>
  <polygon points="18,98 32,100 24,82" fill="#57534e"/>
  <polygon points="2,64 18,74 18,54" fill="#57534e"/>
  <polygon points="18,30 24,46 32,28" fill="#57534e"/>
  <polygon points="38,10 32,28 50,24" fill="#57534e"/>

  <!-- Inner rings with carvings -->
  <circle cx="64" cy="64" r="32" fill="#d6d3d1"/>
  <circle cx="64" cy="64" r="26" fill="#e7e5e4"/>

  <!-- Golden center -->
  <circle cx="64" cy="64" r="12" fill="#ca8a04"/>
  <circle cx="64" cy="64" r="6" fill="#eab308"/>

  <!-- Vine arrows (CCW) -->
  <rect x="56" y="28" width="28" height="8" fill="#22c55e"/>
  <polygon points="52,32 64,22 64,42" fill="#22c55e"/>
  <rect x="58" y="30" width="24" height="4" fill="#4ade80"/>

  <rect x="92" y="56" width="8" height="28" fill="#22c55e"/>
  <polygon points="96,52 86,64 106,64" fill="#22c55e"/>
  <rect x="94" y="58" width="4" height="24" fill="#4ade80"/>

  <rect x="44" y="92" width="28" height="8" fill="#22c55e"/>
  <polygon points="76,96 64,86 64,106" fill="#22c55e"/>
  <rect x="46" y="94" width="24" height="4" fill="#4ade80"/>

  <rect x="28" y="44" width="8" height="28" fill="#22c55e"/>
  <polygon points="32,76 22,64 42,64" fill="#22c55e"/>
  <rect x="30" y="46" width="4" height="24" fill="#4ade80"/>
</svg>
