<svg xmlns="http://www.w3.org/2000/svg" viewBox="0 0 128 128" shape-rendering="crispEdges">
  <!-- Riptide -->
  <rect width="128" height="128" fill="#0c4a6e"/>
  <rect x="8" y="8" width="112" height="112" fill="#075985"/>

  <!-- Rapid current lines -->
  <rect x="8" y="8" width="112" height="8" fill="#7dd3fc"/>
  <rect x="8" y="24" width="112" height="8" fill="#38bdf8"/>
  <rect x="8" y="40" width="112" height="8" fill="#7dd3fc"/>
  <rect x="8" y="56" width="112" height="8" fill="#38bdf8"/>
  <rect x="8" y="72" width="112" height="8" fill="#7dd3fc"/>
  <rect x="8" y="88" width="112" height="8" fill="#38bdf8"/>
  <rect x="8" y="104" width="112" height="8" fill="#7dd3fc"/>

  <!-- Double fish arrows -->
  <polygon points="48,16 36,36 44,36 44,72 52,72 52,36 60,36" fill="#f97316"/>
  <polygon points="80,56 68,76 76,76 76,112 84,112 84,76 92,76" fill="#f97316"/>

  <!-- Deep coral rails -->
  <rect x="0" y="0" width="8" height="128" fill="#ec4899"/>
  <rect x="120" y="0" width="8" height="128" fill="#ec4899"/>
</svg>
