<svg xmlns="http://www.w3.org/2000/svg" viewBox="0 0 64 16" shape-rendering="crispEdges">
  <!-- Coral wall -->
  <rect width="64" height="16" fill="#ec4899"/>

  <!-- Coral segments -->
  <rect x="0" y="0" width="16" height="16" fill="#f472b6"/>
  <rect x="16" y="0" width="16" height="16" fill="#ec4899"/>
  <rect x="32" y="0" width="16" height="16" fill="#f472b6"/>
  <rect x="48" y="0" width="16" height="16" fill="#ec4899"/>

  <!-- Top polyps -->
  <rect x="0" y="0" width="64" height="2" fill="#fda4af"/>
  <rect x="4" y="0" width="4" height="4" fill="#fb7185"/>
  <rect x="20" y="0" width="4" height="4" fill="#fb7185"/>
  <rect x="36" y="0" width="4" height="4" fill="#fb7185"/>
  <rect x="52" y="0" width="4" height="4" fill="#fb7185"/>

  <!-- Bottom base -->
  <rect x="0" y="12" width="64" height="2" fill="#db2777"/>
  <rect x="0" y="14" width="64" height="2" fill="#be185d"/>

  <!-- Barnacles -->
  <rect x="10" y="6" width="4" height="4" fill="#fef3c7"/>
  <rect x="11" y="7" width="2" height="2" fill="#fef9c3"/>
  <rect x="42" y="6" width="4" height="4" fill="#fef3c7"/>
  <rect x="43" y="7" width="2" height="2" fill="#fef9c3"/>
</svg>
