<svg xmlns="http://www.w3.org/2000/svg" viewBox="0 0 128 32" shape-rendering="crispEdges">
  <!-- Coral wall -->
  <rect width="128" height="32" fill="#ec4899"/>

  <!-- Coral segments -->
  <rect x="0" y="0" width="32" height="32" fill="#f472b6"/>
  <rect x="32" y="0" width="32" height="32" fill="#ec4899"/>
  <rect x="64" y="0" width="32" height="32" fill="#f472b6"/>
  <rect x="96" y="0" width="32" height="32" fill="#ec4899"/>

  <!-- Top polyps -->
  <rect x="0" y="0" width="128" height="4" fill="#fda4af"/>
  <rect x="8" y="0" width="8" height="8" fill="#fb7185"/>
  <rect x="40" y="0" width="8" height="8" fill="#fb7185"/>
  <rect x="72" y="0" width="8" height="8" fill="#fb7185"/>
  <rect x="104" y="0" width="8" height="8" fill="#fb7185"/>

  <!-- Bottom base -->
  <rect x="0" y="24" width="128" height="4" fill="#db2777"/>
  <rect x="0" y="28" width="128" height="4" fill="#be185d"/>

  <!-- Barnacles -->
  <rect x="20" y="12" width="8" height="8" fill="#fef3c7"/>
  <rect x="22" y="14" width="4" height="4" fill="#fef9c3"/>
  <rect x="84" y="12" width="8" height="8" fill="#fef3c7"/>
  <rect x="86" y="14" width="4" height="4" fill="#fef9c3"/>
</svg>
