<svg xmlns="http://www.w3.org/2000/svg" viewBox="0 0 128 128" shape-rendering="crispEdges">
  <!-- Grass base -->
  <rect width="128" height="128" fill="#15803d"/>
  <rect x="4" y="4" width="120" height="120" fill="#22c55e"/>
  <rect x="8" y="8" width="112" height="112" fill="#4ade80"/>

  <!-- Grass texture -->
  <rect x="16" y="16" width="8" height="16" fill="#22c55e"/>
  <rect x="40" y="24" width="8" height="12" fill="#22c55e"/>
  <rect x="72" y="12" width="8" height="20" fill="#22c55e"/>
  <rect x="96" y="20" width="8" height="16" fill="#22c55e"/>

  <rect x="24" y="56" width="8" height="16" fill="#22c55e"/>
  <rect x="56" y="48" width="8" height="12" fill="#22c55e"/>
  <rect x="88" y="60" width="8" height="16" fill="#22c55e"/>

  <rect x="12" y="92" width="8" height="16" fill="#22c55e"/>
  <rect x="48" y="96" width="8" height="12" fill="#22c55e"/>
  <rect x="80" y="88" width="8" height="20" fill="#22c55e"/>
  <rect x="108" y="100" width="8" height="12" fill="#22c55e"/>

  <!-- Small flowers -->
  <rect x="32" y="80" width="8" height="8" fill="#fbbf24"/>
  <rect x="100" y="40" width="8" height="8" fill="#f472b6"/>

  <!-- Highlight -->
  <rect x="8" y="8" width="112" height="4" fill="#86efac"/>
</svg>
