<svg xmlns="http://www.w3.org/2000/svg" viewBox="0 0 64 64" shape-rendering="crispEdges">
  <!-- Grass base -->
  <rect width="64" height="64" fill="#15803d"/>
  <rect x="2" y="2" width="60" height="60" fill="#22c55e"/>
  <rect x="4" y="4" width="56" height="56" fill="#4ade80"/>

  <!-- Grass texture -->
  <rect x="8" y="8" width="4" height="8" fill="#22c55e"/>
  <rect x="20" y="12" width="4" height="6" fill="#22c55e"/>
  <rect x="36" y="6" width="4" height="10" fill="#22c55e"/>
  <rect x="48" y="10" width="4" height="8" fill="#22c55e"/>

  <rect x="12" y="28" width="4" height="8" fill="#22c55e"/>
  <rect x="28" y="24" width="4" height="6" fill="#22c55e"/>
  <rect x="44" y="30" width="4" height="8" fill="#22c55e"/>

  <rect x="6" y="46" width="4" height="8" fill="#22c55e"/>
  <rect x="24" y="48" width="4" height="6" fill="#22c55e"/>
  <rect x="40" y="44" width="4" height="10" fill="#22c55e"/>
  <rect x="54" y="50" width="4" height="6" fill="#22c55e"/>

  <!-- Small flowers -->
  <rect x="16" y="40" width="4" height="4" fill="#fbbf24"/>
  <rect x="50" y="20" width="4" height="4" fill="#f472b6"/>

  <!-- Highlight -->
  <rect x="4" y="4" width="56" height="2" fill="#86efac"/>
</svg>
