<svg xmlns="http://www.w3.org/2000/svg" viewBox="0 0 128 128" shape-rendering="crispEdges">
  <!-- Healing spring base -->
  <rect width="128" height="128" fill="#0e7490"/>
  <rect x="4" y="4" width="120" height="120" fill="#06b6d4"/>
  <rect x="8" y="8" width="112" height="112" fill="#22d3ee"/>

  <!-- Water ripples -->
  <circle cx="64" cy="64" r="48" fill="#67e8f9" opacity="0.5"/>
  <circle cx="64" cy="64" r="36" fill="#a5f3fc" opacity="0.5"/>
  <circle cx="64" cy="64" r="24" fill="#cffafe" opacity="0.5"/>

  <!-- Healing flower -->
  <rect x="56" y="24" width="16" height="40" fill="#22c55e"/>
  <rect x="24" y="56" width="40" height="16" fill="#22c55e"/>
  <rect x="64" y="56" width="40" height="16" fill="#22c55e"/>
  <rect x="56" y="64" width="16" height="40" fill="#22c55e"/>

  <!-- Flower petals -->
  <rect x="60" y="28" width="8" height="32" fill="#4ade80"/>
  <rect x="28" y="60" width="32" height="8" fill="#4ade80"/>
  <rect x="68" y="60" width="32" height="8" fill="#4ade80"/>
  <rect x="60" y="68" width="8" height="32" fill="#4ade80"/>

  <!-- Center -->
  <rect x="56" y="56" width="16" height="16" fill="#fbbf24"/>
  <rect x="60" y="60" width="8" height="8" fill="#fde047"/>

  <!-- Lily pads -->
  <rect x="12" y="12" width="20" height="16" fill="#15803d"/>
  <rect x="96" y="100" width="20" height="16" fill="#15803d"/>
</svg>
