<svg xmlns="http://www.w3.org/2000/svg" viewBox="0 0 64 64" shape-rendering="crispEdges">
  <!-- Healing spring base -->
  <rect width="64" height="64" fill="#0e7490"/>
  <rect x="2" y="2" width="60" height="60" fill="#06b6d4"/>
  <rect x="4" y="4" width="56" height="56" fill="#22d3ee"/>

  <!-- Water ripples -->
  <circle cx="32" cy="32" r="24" fill="#67e8f9" opacity="0.5"/>
  <circle cx="32" cy="32" r="18" fill="#a5f3fc" opacity="0.5"/>
  <circle cx="32" cy="32" r="12" fill="#cffafe" opacity="0.5"/>

  <!-- Healing flower -->
  <rect x="28" y="12" width="8" height="20" fill="#22c55e"/>
  <rect x="12" y="28" width="20" height="8" fill="#22c55e"/>
  <rect x="32" y="28" width="20" height="8" fill="#22c55e"/>
  <rect x="28" y="32" width="8" height="20" fill="#22c55e"/>

  <!-- Flower petals -->
  <rect x="30" y="14" width="4" height="16" fill="#4ade80"/>
  <rect x="14" y="30" width="16" height="4" fill="#4ade80"/>
  <rect x="34" y="30" width="16" height="4" fill="#4ade80"/>
  <rect x="30" y="34" width="4" height="16" fill="#4ade80"/>

  <!-- Center -->
  <rect x="28" y="28" width="8" height="8" fill="#fbbf24"/>
  <rect x="30" y="30" width="4" height="4" fill="#fde047"/>

  <!-- Lily pads -->
  <rect x="6" y="6" width="10" height="8" fill="#15803d"/>
  <rect x="48" y="50" width="10" height="8" fill="#15803d"/>
</svg>
