<svg xmlns="http://www.w3.org/2000/svg" viewBox="0 0 128 128" shape-rendering="crispEdges">
  <!-- Brass floor -->
  <rect width="128" height="128" fill="#92400e"/>
  <rect x="4" y="4" width="120" height="120" fill="#b45309"/>
  <rect x="8" y="8" width="112" height="112" fill="#ca8a04"/>

  <!-- Copper pole -->
  <rect x="24" y="16" width="8" height="96" fill="#ea580c"/>
  <rect x="28" y="16" width="4" height="96" fill="#f97316"/>

  <!-- Mechanical base -->
  <rect x="16" y="104" width="24" height="12" fill="#44403c"/>
  <rect x="20" y="108" width="16" height="4" fill="#57534e"/>

  <!-- Victorian flag -->
  <rect x="32" y="20" width="72" height="48" fill="#78350f"/>
  <rect x="32" y="20" width="72" height="8" fill="#92400e"/>
  <rect x="96" y="28" width="8" height="16" fill="#451a03"/>

  <!-- Gear pattern on flag -->
  <circle cx="64" cy="44" r="16" fill="#ca8a04"/>
  <circle cx="64" cy="44" r="10" fill="#eab308"/>

  <!-- Number plate -->
  <rect x="48" y="32" width="32" height="32" fill="#44403c"/>
  <rect x="52" y="36" width="24" height="24" fill="#57534e"/>

  <!-- Lamp top -->
  <rect x="20" y="8" width="16" height="12" fill="#fbbf24"/>
  <rect x="24" y="12" width="8" height="4" fill="#fef3c7"/>
</svg>
