<svg xmlns="http://www.w3.org/2000/svg" viewBox="0 0 64 64" shape-rendering="crispEdges">
  <!-- Mechanical conveyor -->
  <rect width="64" height="64" fill="#44403c"/>
  <rect x="4" y="4" width="56" height="56" fill="#57534e"/>

  <!-- Belt segments -->
  <rect x="4" y="8" width="56" height="6" fill="#78716c"/>
  <rect x="4" y="22" width="56" height="6" fill="#78716c"/>
  <rect x="4" y="36" width="56" height="6" fill="#78716c"/>
  <rect x="4" y="50" width="56" height="6" fill="#78716c"/>

  <!-- Brass arrow -->
  <polygon points="32,8 18,28 26,28 26,52 38,52 38,28 46,28" fill="#ca8a04"/>
  <polygon points="32,12 22,26 28,26 28,48 36,48 36,26 42,26" fill="#eab308"/>

  <!-- Side gears/wheels -->
  <rect x="0" y="0" width="4" height="64" fill="#78350f"/>
  <rect x="60" y="0" width="4" height="64" fill="#78350f"/>
  <circle cx="2" cy="16" r="6" fill="#92400e"/>
  <circle cx="2" cy="48" r="6" fill="#92400e"/>
  <circle cx="62" cy="16" r="6" fill="#92400e"/>
  <circle cx="62" cy="48" r="6" fill="#92400e"/>
</svg>
