<svg xmlns="http://www.w3.org/2000/svg" viewBox="0 0 128 128" shape-rendering="crispEdges">
  <!-- Mechanical conveyor -->
  <rect width="128" height="128" fill="#44403c"/>
  <rect x="8" y="8" width="112" height="112" fill="#57534e"/>

  <!-- Belt segments -->
  <rect x="8" y="16" width="112" height="12" fill="#78716c"/>
  <rect x="8" y="44" width="112" height="12" fill="#78716c"/>
  <rect x="8" y="72" width="112" height="12" fill="#78716c"/>
  <rect x="8" y="100" width="112" height="12" fill="#78716c"/>

  <!-- Brass arrow -->
  <polygon points="64,16 36,56 52,56 52,104 76,104 76,56 92,56" fill="#ca8a04"/>
  <polygon points="64,24 44,52 56,52 56,96 72,96 72,52 84,52" fill="#eab308"/>

  <!-- Side gears/wheels -->
  <rect x="0" y="0" width="8" height="128" fill="#78350f"/>
  <rect x="120" y="0" width="8" height="128" fill="#78350f"/>
  <circle cx="4" cy="32" r="12" fill="#92400e"/>
  <circle cx="4" cy="96" r="12" fill="#92400e"/>
  <circle cx="124" cy="32" r="12" fill="#92400e"/>
  <circle cx="124" cy="96" r="12" fill="#92400e"/>
</svg>
