<svg xmlns="http://www.w3.org/2000/svg" viewBox="0 0 128 128" shape-rendering="crispEdges">
  <!-- Steam vent pit -->
  <rect width="128" height="128" fill="#44403c"/>
  <rect x="8" y="8" width="112" height="112" fill="#292524"/>

  <!-- Deep machinery -->
  <rect x="16" y="16" width="96" height="96" fill="#1c1917"/>
  <rect x="24" y="24" width="80" height="80" fill="#0c0a09"/>

  <!-- Steam vents -->
  <rect x="32" y="32" width="16" height="64" fill="#78350f"/>
  <rect x="56" y="40" width="16" height="56" fill="#78350f"/>
  <rect x="80" y="32" width="16" height="64" fill="#78350f"/>

  <!-- Steam glow -->
  <rect x="36" y="36" width="8" height="56" fill="#e7e5e4" opacity="0.5"/>
  <rect x="60" y="44" width="8" height="48" fill="#e7e5e4" opacity="0.5"/>
  <rect x="84" y="36" width="8" height="56" fill="#e7e5e4" opacity="0.5"/>

  <!-- Brass frame -->
  <rect x="0" y="0" width="128" height="8" fill="#ca8a04"/>
  <rect x="0" y="120" width="128" height="8" fill="#ca8a04"/>
  <rect x="0" y="0" width="8" height="128" fill="#ca8a04"/>
  <rect x="120" y="0" width="8" height="128" fill="#ca8a04"/>

  <!-- Corner gears -->
  <rect x="8" y="8" width="12" height="12" fill="#78350f"/>
  <rect x="108" y="8" width="12" height="12" fill="#78350f"/>
</svg>
