<svg xmlns="http://www.w3.org/2000/svg" viewBox="0 0 64 16" shape-rendering="crispEdges">
  <!-- Brass wall -->
  <rect width="64" height="16" fill="#78350f"/>

  <!-- Brass panels -->
  <rect x="0" y="4" width="16" height="8" fill="#ca8a04"/>
  <rect x="16" y="4" width="16" height="8" fill="#a16207"/>
  <rect x="32" y="4" width="16" height="8" fill="#ca8a04"/>
  <rect x="48" y="4" width="16" height="8" fill="#a16207"/>

  <!-- Top trim -->
  <rect x="0" y="0" width="64" height="2" fill="#eab308"/>
  <rect x="0" y="2" width="64" height="2" fill="#fbbf24"/>

  <!-- Bottom trim -->
  <rect x="0" y="12" width="64" height="2" fill="#92400e"/>
  <rect x="0" y="14" width="64" height="2" fill="#78350f"/>

  <!-- Rivets -->
  <rect x="6" y="6" width="4" height="4" fill="#92400e"/>
  <rect x="7" y="7" width="2" height="2" fill="#fbbf24"/>
  <rect x="22" y="6" width="4" height="4" fill="#92400e"/>
  <rect x="23" y="7" width="2" height="2" fill="#fbbf24"/>
  <rect x="38" y="6" width="4" height="4" fill="#92400e"/>
  <rect x="39" y="7" width="2" height="2" fill="#fbbf24"/>
  <rect x="54" y="6" width="4" height="4" fill="#92400e"/>
  <rect x="55" y="7" width="2" height="2" fill="#fbbf24"/>
</svg>
