<svg xmlns="http://www.w3.org/2000/svg" viewBox="0 0 128 32" shape-rendering="crispEdges">
  <!-- Brass wall -->
  <rect width="128" height="32" fill="#78350f"/>

  <!-- Brass panels -->
  <rect x="0" y="8" width="32" height="16" fill="#ca8a04"/>
  <rect x="32" y="8" width="32" height="16" fill="#a16207"/>
  <rect x="64" y="8" width="32" height="16" fill="#ca8a04"/>
  <rect x="96" y="8" width="32" height="16" fill="#a16207"/>

  <!-- Top trim -->
  <rect x="0" y="0" width="128" height="4" fill="#eab308"/>
  <rect x="0" y="4" width="128" height="4" fill="#fbbf24"/>

  <!-- Bottom trim -->
  <rect x="0" y="24" width="128" height="4" fill="#92400e"/>
  <rect x="0" y="28" width="128" height="4" fill="#78350f"/>

  <!-- Rivets -->
  <rect x="12" y="12" width="8" height="8" fill="#92400e"/>
  <rect x="14" y="14" width="4" height="4" fill="#fbbf24"/>
  <rect x="44" y="12" width="8" height="8" fill="#92400e"/>
  <rect x="46" y="14" width="4" height="4" fill="#fbbf24"/>
  <rect x="76" y="12" width="8" height="8" fill="#92400e"/>
  <rect x="78" y="14" width="4" height="4" fill="#fbbf24"/>
  <rect x="108" y="12" width="8" height="8" fill="#92400e"/>
  <rect x="110" y="14" width="4" height="4" fill="#fbbf24"/>
</svg>
