<svg xmlns="http://www.w3.org/2000/svg" viewBox="0 0 128 128" shape-rendering="crispEdges">
  <!-- Candy pink base -->
  <rect width="128" height="128" fill="#f9a8d4"/>
  <rect x="4" y="4" width="120" height="120" fill="#fbcfe8"/>
  <rect x="8" y="8" width="112" height="112" fill="#fce7f3"/>

  <!-- Checkerboard candy pattern -->
  <rect x="8" y="8" width="28" height="28" fill="#f9a8d4"/>
  <rect x="64" y="8" width="28" height="28" fill="#f9a8d4"/>
  <rect x="36" y="36" width="28" height="28" fill="#f9a8d4"/>
  <rect x="92" y="36" width="28" height="28" fill="#f9a8d4"/>
  <rect x="8" y="64" width="28" height="28" fill="#f9a8d4"/>
  <rect x="64" y="64" width="28" height="28" fill="#f9a8d4"/>
  <rect x="36" y="92" width="28" height="28" fill="#f9a8d4"/>
  <rect x="92" y="92" width="28" height="28" fill="#f9a8d4"/>

  <!-- Sparkle highlights -->
  <rect x="20" y="20" width="8" height="8" fill="#ffffff"/>
  <rect x="100" y="52" width="8" height="8" fill="#ffffff"/>
  <rect x="52" y="100" width="8" height="8" fill="#ffffff"/>

  <!-- Border highlight -->
  <rect x="8" y="8" width="112" height="4" fill="#fdf2f8"/>
  <rect x="8" y="8" width="4" height="112" fill="#fdf2f8"/>
</svg>
